<svg xmlns="http://www.w3.org/2000/svg" aria-hidden="true" class="default-ltr-cache-1d568uk ev1dnif2" viewBox="0 0 111 30">
  <path d="M105.0623 14.2806 110.9992 30c-1.75-.2503-3.499-.5633-5.2808-.8445l-3.3442-8.6869-3.437 7.969c-1.6872-.2813-3.3444-.376-5.0315-.5943l6.0315-13.7501L94.4681 0h5.0633l3.062 7.8742L105.8751 0h5.1242l-5.9369 14.2806ZM90.4686 0H85.875v27.25c1.4996.0937 3.0621.1556 4.5936.343V0Zm-8.563 26.937c-4.187-.2813-8.3748-.5306-12.6554-.6253V0h4.6864v21.8746c2.6882.0628 5.3754.2812 7.969.4058v4.6565Zm-17.656-16.281v4.6874h-6.4055v10.6561h-4.6255V0h13.125v4.6874h-8.4995v5.9687h6.4055ZM45.3435 4.6874V26.25c-1.5625 0-3.1559 0-4.6874.0618V4.6874h-4.844V0h14.4063v4.6874h-4.8749ZM30.7498 15.5928c-2.062 0-4.5 0-6.2498.0947v6.9688c2.75-.1884 5.5-.4068 8.281-.5005v4.5l-12.9685 1.0319V0H32.781v4.6874H24.5v6.3118c1.8127 0 4.5936-.0938 6.2498-.0938v4.6874ZM4.7811 12.9684V29.343c-1.687.1884-3.1877.4067-4.7811.657V0h4.469l6.0934 17.0316V0h4.6874v28.0617c-1.6562.2821-3.3433.3758-5.1251.6251L4.781 12.9684Z"/>
</svg>
